
<svg  xmlns="http://www.w3.org/2000/svg" xmlns:xlink="http://www.w3.org/1999/xlink" x="0px" y="0px"
	 viewBox="0 0 424 75" id="logo"
              role="img"
              class="animate"
              focusable="false"
              aria-labelledby="svg-logo-title svg-logo-desc">
	<title id="svg-logo-title">Muradymov R R</title>		  
<g fill="white">
	<path class="cls-1" d="M80.3,53.5V36.3c0-1.4,0.1-3.1,0.3-5.1h-0.1c-0.3,1.3-0.6,2.1-0.8,2.6l-9,19.7h-2l-9-19.6c-0.2-0.4-0.5-1.4-0.8-2.8h-0.1
		c0.1,1.2,0.2,3,0.2,5.3v17.1h-3.4v-26h4.8l8.1,17.8c0.6,1.4,1,2.4,1.2,3.2h0.1c0.6-1.6,1-2.7,1.3-3.3l8.2-17.8h4.6v26H80.3z"/>
	<path class="cls-1" d="M111.2,42.9c0,7.3-3.5,11-10.5,11c-6.7,0-10.1-3.5-10.1-10.6V27.5h3.5v15.6c0,5.2,2.3,7.8,6.9,7.8c4.4,0,6.7-2.5,6.7-7.6
		V27.5h3.5V42.9z"/>
	<path class="cls-1" d="M137.9,53.5h-4.2l-4.5-7.2c-0.9-1.4-1.7-2.4-2.5-2.9c-0.8-0.5-1.7-0.8-2.7-0.8h-2.5v10.9H118v-26h8.3
		c2.7,0,4.8,0.6,6.3,1.8c1.5,1.2,2.3,2.9,2.3,5.1c0,3.6-2,5.9-6.1,7v0.1c0.8,0.3,1.4,0.7,2,1.3c0.5,0.6,1.3,1.5,2.1,2.9L137.9,53.5z
		 M121.5,30.4v9.2h4.2c1.6,0,2.9-0.4,3.9-1.3c1-0.9,1.5-2.1,1.5-3.5c0-1.4-0.5-2.4-1.4-3.2s-2.3-1.1-4-1.1H121.5z"/>
	<path class="cls-1" d="M163.1,53.5h-3.9l-2.8-7.1H145l-2.6,7.1h-3.9l10.4-26h3.8L163.1,53.5z M155.3,43.4l-4.1-10.8c-0.1-0.3-0.3-1-0.4-1.8h-0.1
		c-0.1,0.8-0.3,1.4-0.4,1.8l-4.1,10.8H155.3z"/>
	<path class="cls-1" d="M167.1,53.5v-26h7.8c4.1,0,7.6,1.1,10.4,3.4c2.8,2.3,4.1,5.4,4.1,9.2c0,4-1.4,7.3-4.1,9.7c-2.8,2.4-6.3,3.6-10.6,3.6H167.1
		z M170.6,30.5v20h4c3.5,0,6.2-0.9,8.1-2.7c2-1.8,2.9-4.3,2.9-7.6c0-3.2-1-5.7-3-7.3c-2-1.6-4.6-2.5-7.9-2.5H170.6z"/>
	<path class="cls-1" d="M212.8,27.5l-9,16.4v9.6h-3.6V44l-8.8-16.5h4l5.9,11.5c0,0,0.2,0.6,0.7,1.7h0.1c0.1-0.5,0.4-1,0.7-1.6l6.2-11.5H212.8z"/>
	<path class="cls-1" d="M241.3,53.5V36.3c0-1.4,0.1-3.1,0.3-5.1h-0.1c-0.3,1.3-0.6,2.1-0.8,2.6l-9,19.7h-2l-9-19.6c-0.2-0.4-0.5-1.4-0.8-2.8h-0.1
		c0.1,1.2,0.2,3,0.2,5.3v17.1h-3.4v-26h4.8l8.1,17.8c0.6,1.4,1,2.4,1.2,3.2h0.1c0.6-1.6,1-2.7,1.3-3.3l8.2-17.8h4.6v26H241.3z"/>
	<path class="cls-1" d="M250.1,40.8c0-4.2,1.2-7.5,3.6-10c2.4-2.5,5.6-3.7,9.7-3.7c3.8,0,6.9,1.2,9.2,3.6s3.5,5.6,3.5,9.5c0,4.2-1.2,7.6-3.6,10
		s-5.6,3.7-9.5,3.7c-3.9,0-7-1.2-9.4-3.6C251.3,47.8,250.1,44.7,250.1,40.8z M253.8,40.5c0,3.1,0.8,5.7,2.5,7.6s3.9,2.8,6.6,2.8
		c2.9,0,5.2-0.9,6.9-2.7c1.7-1.8,2.5-4.4,2.5-7.6c0-3.4-0.8-5.9-2.4-7.8c-1.6-1.8-3.9-2.7-6.7-2.7c-2.8,0-5.1,1-6.8,2.9
		C254.7,34.9,253.8,37.4,253.8,40.5z"/>
	<path class="cls-1" d="M302,27.5l-10.1,26H288l-9.9-26h3.9l7.4,20.3c0.2,0.7,0.4,1.4,0.5,2.3h0.1c0.1-0.8,0.3-1.6,0.6-2.4l7.5-20.3H302z"/>
	<path class="cls-1" d="M336.6,53.5h-4.2l-4.5-7.2c-0.9-1.4-1.7-2.4-2.5-2.9c-0.8-0.5-1.7-0.8-2.7-0.8h-2.5v10.9h-3.5v-26h8.3
		c2.7,0,4.8,0.6,6.3,1.8c1.5,1.2,2.3,2.9,2.3,5.1c0,3.6-2,5.9-6.1,7v0.1c0.8,0.3,1.4,0.7,2,1.3s1.3,1.5,2.1,2.9L336.6,53.5z
		 M320.1,30.4v9.2h4.2c1.6,0,2.9-0.4,3.9-1.3c1-0.9,1.5-2.1,1.5-3.5c0-1.4-0.5-2.4-1.4-3.2c-0.9-0.8-2.3-1.1-4-1.1H320.1z"/>
	<path d="M370.9,53.5h-4.2l-4.5-7.2c-0.9-1.4-1.7-2.4-2.5-2.9c-0.8-0.5-1.7-0.8-2.7-0.8h-2.5v10.9H351v-26h8.3
		c2.7,0,4.8,0.6,6.3,1.8c1.5,1.2,2.3,2.9,2.3,5.1c0,3.6-2,5.9-6.1,7v0.1c0.8,0.3,1.4,0.7,2,1.3s1.3,1.5,2.1,2.9L370.9,53.5z
		 M354.5,30.4v9.2h4.2c1.6,0,2.9-0.4,3.9-1.3c1-0.9,1.5-2.1,1.5-3.5c0-1.4-0.5-2.4-1.4-3.2c-0.9-0.8-2.3-1.1-4-1.1H354.5z"/>
		 <rect class="cls-1" x="55.5" y="11" width="314" height="3"/>
	<rect class="cls-1" x="55.5" y="65" width="314" height="3"/>
</g>
	
</svg>
